<?xml version="1.0" encoding="UTF-8"?>
<svg version="1.1" xmlns="http://www.w3.org/2000/svg" width="684" height="365">
<path d="M0 0 C2.31438377 2.14023212 4.21003655 4.40964638 6 7 C8.88677665 5.69124442 10.92065219 4.26218195 13.1875 2.0625 C18.00895479 -2.16014456 23.10065574 -3.62415908 29.375 -4.4375 C36.72334008 -3.55063137 43.05427096 -1.50266565 48.4375 3.75 C58.5654184 17.08339691 56.4829735 35.73033132 56.25 51.5 C56.22989196 53.88409948 56.21164886 56.26821545 56.1953125 58.65234375 C56.15512277 64.43564656 56.07677065 70.21661078 56 76 C48.74 76 41.48 76 34 76 C33.96261719 72.7721875 33.92523438 69.544375 33.88671875 66.21875 C33.8404383 63.0744774 33.78922829 59.93032077 33.73754883 56.78613281 C33.70440219 54.60977289 33.67633866 52.43332912 33.65356445 50.25683594 C33.61982962 47.11877897 33.5675038 43.98148325 33.51171875 40.84375 C33.50532883 39.87884644 33.4989389 38.91394287 33.49235535 37.9197998 C33.364109 31.95685052 32.50135298 27.43661018 30 22 C27.97970634 20.12935772 26.80789847 20.00832885 24.10546875 19.98046875 C20.57538168 20.22279384 18.47371319 20.65989822 15.5625 22.75 C12.99745752 26.44366117 12.87960627 30.38613184 12.79467773 34.7902832 C12.77473251 35.71086014 12.75478729 36.63143707 12.73423767 37.57991028 C12.71752518 38.5602977 12.70081268 39.54068512 12.68359375 40.55078125 C12.6524221 42.07169624 12.6524221 42.07169624 12.62062073 43.62333679 C12.55538886 46.85299085 12.49636298 50.08272421 12.4375 53.3125 C12.39428971 55.50586748 12.35067462 57.69922703 12.30664062 59.89257812 C12.19897501 65.26163874 12.09970533 70.63076206 12 76 C4.74 76 -2.52 76 -10 76 C-10.04898438 72.52082031 -10.09796875 69.04164063 -10.1484375 65.45703125 C-10.2024593 62.08451057 -10.25976217 58.71206049 -10.31738281 55.33959961 C-10.35564716 52.99720527 -10.39050446 50.65475267 -10.421875 48.31225586 C-10.46758025 44.943636 -10.52556661 41.57541627 -10.5859375 38.20703125 C-10.59748871 37.16102249 -10.60903992 36.11501373 -10.62094116 35.03730774 C-10.64081085 34.05666855 -10.66068054 33.07602936 -10.68115234 32.06567383 C-10.69447601 31.20629715 -10.70779968 30.34692047 -10.7215271 29.46150208 C-11.11768781 25.95972355 -11.88079974 22.9470156 -14.625 20.625 C-18.2133104 19.68070779 -21.44917513 19.94230749 -25 21 C-28.50252659 24.38954187 -29.11852193 28.02240768 -29.20532227 32.74682617 C-29.22526749 33.70759567 -29.24521271 34.66836517 -29.26576233 35.6582489 C-29.29083107 37.20993523 -29.29083107 37.20993523 -29.31640625 38.79296875 C-29.33718735 39.85413406 -29.35796844 40.91529938 -29.37937927 42.00862122 C-29.44481238 45.40151437 -29.50373093 48.7944855 -29.5625 52.1875 C-29.60569114 54.48633622 -29.64930562 56.78516453 -29.69335938 59.08398438 C-29.80128478 64.72257746 -29.90040502 70.36122895 -30 76 C-37.59 76 -45.18 76 -53 76 C-53 50.59 -53 25.18 -53 -1 C-46.07 -1 -39.14 -1 -32 -1 C-31.67 0.65 -31.34 2.3 -31 4 C-30.360625 3.236875 -29.72125 2.47375 -29.0625 1.6875 C-21.06658666 -6.28576203 -9.16124091 -5.21995172 0 0 Z " fill="#21252B" transform="translate(127,158)"/>
<path d="M0 0 C2.328125 2.140625 2.328125 2.140625 4 4 C4.33 2.35 4.66 0.7 5 -1 C12.26 -1 19.52 -1 27 -1 C27 24.41 27 49.82 27 76 C19.74 76 12.48 76 5 76 C4.67 74.68 4.34 73.36 4 72 C3.07767578 72.63228516 3.07767578 72.63228516 2.13671875 73.27734375 C1.32847656 73.82519531 0.52023437 74.37304688 -0.3125 74.9375 C-1.51326172 75.75541016 -1.51326172 75.75541016 -2.73828125 76.58984375 C-9.19430799 80.61510395 -18.60195495 79.88922222 -25.859375 78.421875 C-35.76675064 74.95113831 -43.28629764 67.2409525 -47.8828125 57.95703125 C-52.5660451 45.56120232 -52.83837945 29.19429036 -47.4375 16.9375 C-42.37721657 7.74559939 -34.68124121 0.27516048 -24.625 -2.75 C-15.48313226 -4.98002434 -8.5545464 -4.30384011 0 0 Z M-24.8125 24.75 C-28.72338801 30.56046219 -29.50812349 35.67727693 -28.59375 42.50390625 C-27.41360438 47.46517631 -25.22492699 51.24041722 -21.20703125 54.41796875 C-16.81794742 56.98483814 -13.09262354 57.4817818 -8.10546875 56.59765625 C-3.97173404 55.42425846 -1.09798294 53.74551135 1.21875 50.0625 C4.32371682 44.02999303 6.39244644 38.48761271 4.28125 31.68359375 C1.88549248 25.81978401 -0.7255282 22.67921631 -6.4375 19.75 C-13.6542189 17.63778959 -19.47566968 19.53176591 -24.8125 24.75 Z " fill="#1F2429" transform="translate(538,158)"/>
<path d="M0 0 C7.26 0 14.52 0 22 0 C22.495 14.355 22.495 14.355 23 29 C24.32 27.68 25.64 26.36 27 25 C33.02747911 22.01411386 39.16358859 20.91893031 45.703125 22.76171875 C53.40008854 25.36510348 58.72135676 28.36817382 62.85769653 35.52459717 C66.65886478 43.76183266 66.28062217 53.65852293 66.1953125 62.546875 C66.1924826 63.68408997 66.18965271 64.82130493 66.18673706 65.99298096 C66.17565858 69.578767 66.15057773 73.16429112 66.125 76.75 C66.11495424 79.20051719 66.1058312 81.65103835 66.09765625 84.1015625 C66.07747247 90.06788723 66.03830036 96.03365495 66 102 C58.41 102 50.82 102 43 102 C42.95101562 98.59300781 42.90203125 95.18601562 42.8515625 91.67578125 C42.79753865 88.3727584 42.7402366 85.06980755 42.68261719 81.7668457 C42.64435595 79.47295504 42.60949811 77.17900497 42.578125 74.88500977 C42.53241294 71.5858844 42.47442778 68.28716704 42.4140625 64.98828125 C42.40251129 63.96414627 42.39096008 62.94001129 42.37905884 61.88484192 C42.35918915 60.92422348 42.33931946 59.96360504 42.31884766 58.97387695 C42.30552399 58.13226517 42.29220032 57.29065338 42.2784729 56.42353821 C41.82110607 52.44309345 40.87310221 49.74837332 37.8125 47.125 C34.0629369 45.62517476 31.87165104 45.94409517 28 47 C24.38774451 49.66166194 23.66810394 51.68086034 23 56 C22.89253048 57.59460978 22.82549181 59.19235312 22.79467773 60.7902832 C22.77473251 61.71086014 22.75478729 62.63143707 22.73423767 63.57991028 C22.70916893 65.05049141 22.70916893 65.05049141 22.68359375 66.55078125 C22.66281265 67.56472458 22.64203156 68.57866791 22.62062073 69.62333679 C22.55538886 72.85299085 22.49636298 76.08272421 22.4375 79.3125 C22.39428971 81.50586748 22.35067462 83.69922703 22.30664062 85.89257812 C22.19897501 91.26163874 22.09970533 96.63076206 22 102 C14.74 102 7.48 102 0 102 C0 68.34 0 34.68 0 0 Z " fill="#23272D" transform="translate(365,132)"/>
<path d="M0 0 C7.59 0 15.18 0 23 0 C23.33 16.17 23.66 32.34 24 49 C31.21384354 38.69688714 31.21384354 38.69688714 37.8515625 28.03125 C39.78579852 25.50410746 40.72160894 25.05757869 43.88964844 24.40234375 C47.4244093 24.21055875 50.84121257 24.30091338 54.375 24.5 C56.19451172 24.55414063 56.19451172 24.55414063 58.05078125 24.609375 C61.03710076 24.70343231 64.01691402 24.83473208 67 25 C63.41862567 30.49813335 59.72497699 35.81476837 55.625 40.9375 C55.15674805 41.53159668 54.68849609 42.12569336 54.20605469 42.73779297 C52.00403004 45.52447243 49.77195807 48.26934365 47.4765625 50.98046875 C46.37441406 52.28951172 46.37441406 52.28951172 45.25 53.625 C44.26773438 54.75808594 44.26773438 54.75808594 43.265625 55.9140625 C41.78401241 57.86101738 41.78401241 57.86101738 42.25463867 59.83374023 C43.12359193 62.3591979 44.29030947 64.45217089 45.66015625 66.74609375 C46.20309326 67.66011963 46.74603027 68.57414551 47.30541992 69.51586914 C47.88525635 70.48000732 48.46509277 71.44414551 49.0625 72.4375 C49.64942627 73.42290771 50.23635254 74.40831543 50.84106445 75.42358398 C54.65479758 81.81125934 58.52976458 88.15725159 62.51171875 94.44140625 C64 97 64 97 66 102 C57.75 102 49.5 102 41 102 C39.494375 99.298125 37.98875 96.59625 36.4375 93.8125 C35.97915771 92.99112549 35.52081543 92.16975098 35.04858398 91.32348633 C31.29825601 84.58253812 27.65850374 77.79436409 24 71 C23.67 81.23 23.34 91.46 23 102 C15.41 102 7.82 102 0 102 C0 68.34 0 34.68 0 0 Z " fill="#25292F" transform="translate(287,132)"/>
<path d="M0 0 C9.26967355 6.98361872 14.85269107 15.87480149 17.16015625 27.26953125 C18.52105022 39.15837104 17.36729271 51.42505687 10.53515625 61.58203125 C9.75140625 62.46890625 8.96765625 63.35578125 8.16015625 64.26953125 C7.50015625 64.26953125 6.84015625 64.26953125 6.16015625 64.26953125 C5.93328125 64.84703125 5.70640625 65.42453125 5.47265625 66.01953125 C2.18469931 71.65602886 -4.57394318 74.84130022 -10.61328125 76.86328125 C-21.64632958 78.87632866 -32.88676658 77.79761545 -42.37109375 71.62109375 C-52.17655587 64.33066899 -57.58592697 54.73883403 -59.55859375 42.65625 C-60.68347114 33.11041546 -59.58560731 22.7912719 -54.83984375 14.26953125 C-54.17984375 14.26953125 -53.51984375 14.26953125 -52.83984375 14.26953125 C-52.73800781 13.69074219 -52.63617188 13.11195313 -52.53125 12.515625 C-50.62726759 6.33037139 -44.52547417 1.42024863 -39.06640625 -1.69921875 C-26.20377466 -7.65664812 -12.25836056 -7.46967501 0 0 Z M-34.83984375 24.26953125 C-37.94809755 30.81322346 -37.68629731 38.23225672 -35.77734375 45.08203125 C-33.02346944 49.61259866 -29.94857575 53.10064802 -24.88671875 55.00390625 C-20.36043748 55.8949065 -16.7195955 55.1099616 -12.73828125 52.8203125 C-8.27074968 49.17090914 -5.43835148 44.32652456 -4.33203125 38.67578125 C-4.05930916 32.784984 -5.41755138 28.06713737 -8.83984375 23.26953125 C-12.6952022 19.05553481 -15.93392636 17.41208859 -21.52734375 17.0625 C-26.87254936 17.54104037 -31.31914186 20.31001724 -34.83984375 24.26953125 Z " fill="#21252B" transform="translate(255.83984375,159.73046875)"/>
<path d="M0 0 C7.26 0 14.52 0 22 0 C22 25.41 22 50.82 22 77 C14.74 77 7.48 77 0 77 C0 51.59 0 26.18 0 0 Z " fill="#21262C" transform="translate(583,157)"/>
<path d="M0 0 C0.66 0 1.32 0 2 0 C2 1.32 2 2.64 2 4 C2.66 4 3.32 4 4 4 C4 2.68 4 1.36 4 0 C7.63 0 11.26 0 15 0 C15 1.32 15 2.64 15 4 C16.32 4.66 17.64 5.32 19 6 C19 6.66 19 7.32 19 8 C21.475 8.495 21.475 8.495 24 9 C24 12.33333333 24 15.66666667 24 19 C22.35 19.66 20.7 20.32 19 21 C20.65 21 22.3 21 24 21 C24 21.66 24 22.32 24 23 C22.35 23 20.7 23 19 23 C19 24.32 19 25.64 19 27 C17.68 27 16.36 27 15 27 C15 28.65 15 30.3 15 32 C12.69 32 10.38 32 8 32 C8 30.35 8 28.7 8 27 C7.67 28.65 7.34 30.3 7 32 C4.69 32 2.38 32 0 32 C0 30.68 0 29.36 0 28 C-1.32 27.67 -2.64 27.34 -4 27 C-4 25.68 -4 24.36 -4 23 C-5.65 23 -7.3 23 -9 23 C-9 22.34 -9 21.68 -9 21 C-8.34 20.67 -7.68 20.34 -7 20 C-7.66 19.67 -8.32 19.34 -9 19 C-9.08912219 15.16774573 -8.87867729 11.73437848 -8 8 C-6.68 8 -5.36 8 -4 8 C-3.67 6.68 -3.34 5.36 -3 4 C-2.01 4 -1.02 4 0 4 C0 2.68 0 1.36 0 0 Z M5 13 C5 14.98 5 16.96 5 19 C6.65 19 8.3 19 10 19 C10 17.02 10 15.04 10 13 C8.35 13 6.7 13 5 13 Z " fill="#4777A2" transform="translate(585,120)"/>
<path d="M0 0 C3.82842867 2.06146159 6.90545116 4.14162056 9 8 C10.48566947 13.62432013 9.85712535 16.95241188 7 22 C3.63248187 25.12111436 1.33933667 26.87121763 -3.25 27.3125 C-8.43371238 26.88052397 -11.19666956 24.80333044 -14.8125 21.1875 C-16.81965538 17.4901085 -17.36456598 14.07492338 -16.6328125 9.91015625 C-15.47899838 6.0854761 -14.15996512 3.67346876 -10.75 1.5 C-7.06717291 -0.23674372 -4.07116074 -0.59216883 0 0 Z M1 7 C1 7.66 1 8.32 1 9 C1.66 8.67 2.32 8.34 3 8 C2.34 7.67 1.68 7.34 1 7 Z M-6 11 C-5.67 12.65 -5.34 14.3 -5 16 C-3.68 15.67 -2.36 15.34 -1 15 C-1.33 13.68 -1.66 12.36 -2 11 C-3.32 11 -4.64 11 -6 11 Z M1 18 C1 18.66 1 19.32 1 20 C1.66 20 2.32 20 3 20 C3 19.34 3 18.68 3 18 C2.34 18 1.68 18 1 18 Z " fill="#2F7CB6" transform="translate(470,210)"/>
<path d="M0 0 C-0.99 0.99 -1.98 1.98 -3 3 C-2.01 3 -1.02 3 0 3 C0.20625 3.78375 0.4125 4.5675 0.625 5.375 C1.77601154 8.31069367 1.77601154 8.31069367 5 9 C8 10 8 10 9.3125 12.375 C9.6528125 13.674375 9.6528125 13.674375 10 15 C10.20625 15.763125 10.4125 16.52625 10.625 17.3125 C10.74875 17.869375 10.8725 18.42625 11 19 C7.24543433 21.50304378 5.45254066 21.45280074 1 21 C-2.82842867 18.93853841 -5.90545116 16.85837944 -8 13 C-9.52250381 7.23623557 -8.91097601 4.01892416 -6 -1 C-2.93378972 -2.57956287 -2.48127179 -2.48127179 0 0 Z " fill="#3B5B7F" transform="translate(462,216)"/>
<path d="M0 0 C0 2.64 0 5.28 0 8 C1.98 8 3.96 8 6 8 C6.66 9.32 7.32 10.64 8 12 C7.01 12.66 6.02 13.32 5 14 C4.34 14.66 3.68 15.32 3 16 C3 17.32 3 18.64 3 20 C0.69 20 -1.62 20 -4 20 C-4 18.68 -4 17.36 -4 16 C-5.32 15.67 -6.64 15.34 -8 15 C-8 13.68 -8 12.36 -8 11 C-9.65 11 -11.3 11 -13 11 C-13 10.34 -13 9.68 -13 9 C-12.34 8.67 -11.68 8.34 -11 8 C-11.66 7.67 -12.32 7.34 -13 7 C-13 5.02 -13 3.04 -13 1 C-8.23947038 -0.97387813 -5.03511899 -1.0070238 0 0 Z " fill="#3C5675" transform="translate(589,132)"/>
<path d="M0 0 C3.63 0 7.26 0 11 0 C11 1.32 11 2.64 11 4 C12.32 4.66 13.64 5.32 15 6 C15 6.66 15 7.32 15 8 C17.475 8.495 17.475 8.495 20 9 C20 10.98 20 12.96 20 15 C18.56260487 15.02712066 17.12506137 15.04645067 15.6875 15.0625 C14.48673828 15.07990234 14.48673828 15.07990234 13.26171875 15.09765625 C11 15 11 15 8 14 C7.34 15.32 6.68 16.64 6 18 C5.875 12.25 5.875 12.25 7 10 C7.66 10 8.32 10 9 10 C9 9.34 9 8.68 9 8 C9.66 8 10.32 8 11 8 C11.33 9.32 11.66 10.64 12 12 C12.66 12 13.32 12 14 12 C13.67 10.35 13.34 8.7 13 7 C10.08347826 6.83318891 10.08347826 6.83318891 7 7 C6.34 7.66 5.68 8.32 5 9 C5 8.01 5 7.02 5 6 C4.01 6 3.02 6 2 6 C2 5.34 2 4.68 2 4 C1.34 4 0.68 4 0 4 C0 2.68 0 1.36 0 0 Z " fill="#81B0CE" transform="translate(589,120)"/>
<path d="M0 0 C1.98 0 3.96 0 6 0 C6 2.64 6 5.28 6 8 C7.98 8 9.96 8 12 8 C12.66 9.32 13.32 10.64 14 12 C13.01 12.66 12.02 13.32 11 14 C10.67 14.33 10.34 14.66 10 15 C8.52351124 15.09823996 7.04224583 15.12973519 5.5625 15.125 C4.75941406 15.12757813 3.95632813 15.13015625 3.12890625 15.1328125 C1 15 1 15 -1 14 C-1 13.01 -1 12.02 -1 11 C-0.01 11 0.98 11 2 11 C2 6.91621923 1.19287411 3.87684087 0 0 Z " fill="#315683" transform="translate(583,132)"/>
<path d="M0 0 C1.65 0.33 3.3 0.66 5 1 C5 1.66 5 2.32 5 3 C3.35 3.66 1.7 4.32 0 5 C1.65 5 3.3 5 5 5 C5 5.66 5 6.32 5 7 C3.35 7 1.7 7 0 7 C0 8.32 0 9.64 0 11 C-1.32 11 -2.64 11 -4 11 C-4 12.65 -4 14.3 -4 16 C-6.31 16 -8.62 16 -11 16 C-11 13.36 -11 10.72 -11 8 C-10.01 7.67 -9.02 7.34 -8 7 C-8.33 6.01 -8.66 5.02 -9 4 C-6.49642139 4.8345262 -4.33214148 5.79371992 -2 7 C-1.34 4.69 -0.68 2.38 0 0 Z " fill="#3D628A" transform="translate(604,136)"/>
<path d="M0 0 C6.75 0.75 6.75 0.75 9 3 C8.9375 5.875 8.9375 5.875 8 9 C5.4375 11.375 5.4375 11.375 3 13 C2.34 11.35 1.68 9.7 1 8 C1.66 8 2.32 8 3 8 C3 7.34 3 6.68 3 6 C2.01 6.33 1.02 6.66 0 7 C-0.66 5.68 -1.32 4.36 -2 3 C-1.34 2.01 -0.68 1.02 0 0 Z " fill="#3E729D" transform="translate(470,222)"/>
<path d="M0 0 C0.66 0 1.32 0 2 0 C3.5 2.25 3.5 2.25 5 5 C5.4125 5.639375 5.825 6.27875 6.25 6.9375 C7.30635337 9.84247178 6.67294225 12.03905411 6 15 C4.1875 14.9375 4.1875 14.9375 2 14 C-0.95329378 8.90811417 -1.31820805 5.87201769 0 0 Z " fill="#263F5C" transform="translate(454,218)"/>
<path d="M0 0 C2.475 0.99 2.475 0.99 5 2 C5.33 1.67 5.66 1.34 6 1 C9 0.875 9 0.875 12 1 C13 2 13 2 13.0625 4.5625 C13.041875 5.366875 13.02125 6.17125 13 7 C12.01 7.33 11.02 7.66 10 8 C9.67 7.01 9.34 6.02 9 5 C9.33 4.34 9.66 3.68 10 3 C9.34 3 8.68 3 8 3 C8 3.66 8 4.32 8 5 C5.69 5.33 3.38 5.66 1 6 C0.4465236 3.92446352 0 2.15634036 0 0 Z " fill="#2E7DB9" transform="translate(590,125)"/>
<path d="M0 0 C5.7200759 -0.45760607 8.55296727 0.36151868 13 4 C14.875 6.25 14.875 6.25 16 8 C15.67 8.66 15.34 9.32 15 10 C12.69 9.01 10.38 8.02 8 7 C8.66 6.01 9.32 5.02 10 4 C9.01 4 8.02 4 7 4 C6.67 4.66 6.34 5.32 6 6 C4 5 4 5 3 2 C2.01 1.34 1.02 0.68 0 0 Z " fill="#63A5CC" transform="translate(463,210)"/>
<path d="M0 0 C0.99 0 1.98 0 3 0 C3.99 2.31 4.98 4.62 6 7 C-1.59 7 -9.18 7 -17 7 C-17 6.67 -17 6.34 -17 6 C-15.94039063 5.95101562 -14.88078125 5.90203125 -13.7890625 5.8515625 C-12.40101503 5.77653291 -11.01299549 5.70098515 -9.625 5.625 C-8.57699219 5.57859375 -8.57699219 5.57859375 -7.5078125 5.53125 C-3.29814173 5.40500502 -3.29814173 5.40500502 0 3 C0 2.01 0 1.02 0 0 Z " fill="#383C3F" transform="translate(347,227)"/>
<path d="M0 0 C0.33 0.99 0.66 1.98 1 3 C0.34 3 -0.32 3 -1 3 C-1 2.34 -1 1.68 -1 1 C-1.99 1 -2.98 1 -4 1 C-3.649375 1.78375 -3.29875 2.5675 -2.9375 3.375 C-2.628125 4.24125 -2.31875 5.1075 -2 6 C-2.33 6.66 -2.66 7.32 -3 8 C-1.35 8.33 0.3 8.66 2 9 C1.360625 9.103125 0.72125 9.20625 0.0625 9.3125 C-0.618125 9.539375 -1.29875 9.76625 -2 10 C-2.33 10.99 -2.66 11.98 -3 13 C-3 12.34 -3 11.68 -3 11 C-3.66 10.67 -4.32 10.34 -5 10 C-4.67 9.34 -4.34 8.68 -4 8 C-4.99 8 -5.98 8 -7 8 C-6.67 6.68 -6.34 5.36 -6 4 C-7.32 3.67 -8.64 3.34 -10 3 C-6.48812804 0.59185923 -4.27343092 -0.36629408 0 0 Z " fill="#5A8BB4" transform="translate(466,211)"/>
<path d="M0 0 C2.375 0.625 2.375 0.625 5 2 C6.3125 5.125 6.3125 5.125 7 8 C5.1128125 7.7525 5.1128125 7.7525 3.1875 7.5 C0.73543415 7.17841759 -1.51650694 7 -4 7 C-4.33 6.01 -4.66 5.02 -5 4 C-3.35 3.34 -1.7 2.68 0 2 C0 1.34 0 0.68 0 0 Z " fill="#3C84B8" transform="translate(473,217)"/>
<path d="M0 0 C0.66 0 1.32 0 2 0 C2 1.32 2 2.64 2 4 C2.99 4.33 3.98 4.66 5 5 C5 5.66 5 6.32 5 7 C5.66 7.33 6.32 7.66 7 8 C6.01 8.33 5.02 8.66 4 9 C4 8.01 4 7.02 4 6 C3.01 6 2.02 6 1 6 C1.33 7.32 1.66 8.64 2 10 C-0.16874252 9.49396008 -1.99967627 9.00016187 -4 8 C-3.67 6.68 -3.34 5.36 -3 4 C-2.01 4 -1.02 4 0 4 C0 2.68 0 1.36 0 0 Z M-1 6 C-1.33 6.66 -1.66 7.32 -2 8 C-1.34 8 -0.68 8 0 8 C-0.33 7.34 -0.66 6.68 -1 6 Z " fill="#457BAA" transform="translate(585,120)"/>
<path d="M0 0 C0.66 0.66 1.32 1.32 2 2 C1.01 2.99 0.02 3.98 -1 5 C-0.01 5 0.98 5 2 5 C1.34 6.98 0.68 8.96 0 11 C-2.19636905 8.80363095 -3.58511552 6.76239351 -5 4 C-4.67 3.01 -4.34 2.02 -4 1 C-2.0625 0.1875 -2.0625 0.1875 0 0 Z " fill="#2F5580" transform="translate(460,214)"/>
<path d="M0 0 C0.99 0 1.98 0 3 0 C2.67 3.3 2.34 6.6 2 10 C0.02 9.34 -1.96 8.68 -4 8 C-2.68 5.36 -1.36 2.72 0 0 Z " fill="#3879B2" transform="translate(601,134)"/>
<path d="M0 0 C4.95 0.99 4.95 0.99 10 2 C10.33 3.65 10.66 5.3 11 7 C8.69 7 6.38 7 4 7 C4 5.68 4 4.36 4 3 C2.68 2.67 1.36 2.34 0 2 C0 1.34 0 0.68 0 0 Z " fill="#6A7A8B" transform="translate(581,145)"/>
<path d="M0 0 C1.65 0.33 3.3 0.66 5 1 C5 1.66 5 2.32 5 3 C3.35 3.66 1.7 4.32 0 5 C1.65 5 3.3 5 5 5 C5 5.66 5 6.32 5 7 C3.35 7 1.7 7 0 7 C-0.33 8.32 -0.66 9.64 -1 11 C-1.0270043 9.54176788 -1.04639787 8.08339325 -1.0625 6.625 C-1.07410156 5.81289062 -1.08570313 5.00078125 -1.09765625 4.1640625 C-1 2 -1 2 0 0 Z " fill="#96B3CE" transform="translate(604,136)"/>
<path d="M0 0 C0 1.98 0 3.96 0 6 C-5.75 6.125 -5.75 6.125 -8 5 C-8 4.01 -8 3.02 -8 2 C-6.824375 1.7834375 -6.824375 1.7834375 -5.625 1.5625 C-3.76394715 1.16370296 -1.83313854 0 0 0 Z " fill="#2B4364" transform="translate(590,141)"/>
<path d="M0 0 C2 3 2 3 2 6 C1.38125 6.2475 0.7625 6.495 0.125 6.75 C-2.37480203 8.22047178 -2.83316022 9.41403076 -4 12 C-3.91253716 10.56138706 -3.80434652 9.12402492 -3.6875 7.6875 C-3.62949219 6.88699219 -3.57148438 6.08648437 -3.51171875 5.26171875 C-2.91793306 2.63727666 -2.04219706 1.69179328 0 0 Z " fill="#383D41" transform="translate(492,176)"/>
<path d="M0 0 C0.99 0 1.98 0 3 0 C3 0.99 3 1.98 3 3 C3.66 3 4.32 3 5 3 C5 4.65 5 6.3 5 8 C3.35 8 1.7 8 0 8 C0 5.36 0 2.72 0 0 Z " fill="#7996AD" transform="translate(593,144)"/>
<path d="M0 0 C0.99 0.99 1.98 1.98 3 3 C1.1875 5 1.1875 5 -1 7 C-1.99 7 -2.98 7 -4 7 C-4 5.35 -4 3.7 -4 2 C-2.68 1.34 -1.36 0.68 0 0 Z " fill="#2B4D77" transform="translate(594,140)"/>
<path d="M0 0 C0.66 0 1.32 0 2 0 C2.33 1.32 2.66 2.64 3 4 C3.66 4 4.32 4 5 4 C5 4.66 5 5.32 5 6 C2 7 2 7 -1 6 C-1.66 7.32 -2.32 8.64 -3 10 C-3.125 4.25 -3.125 4.25 -2 2 C-1.34 2 -0.68 2 0 2 C0 1.34 0 0.68 0 0 Z " fill="#5CA0D2" transform="translate(598,128)"/>
<path d="M0 0 C0.66 0.33 1.32 0.66 2 1 C2 2.65 2 4.3 2 6 C-0.31 6 -2.62 6 -5 6 C-4.34 5.67 -3.68 5.34 -3 5 C-2.835 4.34 -2.67 3.68 -2.5 3 C-2.335 2.34 -2.17 1.68 -2 1 C-1.34 0.67 -0.68 0.34 0 0 Z " fill="#526E8C" transform="translate(468,231)"/>
<path d="M0 0 C0.66 0 1.32 0 2 0 C2 0.99 2 1.98 2 3 C2.639375 3.2475 3.27875 3.495 3.9375 3.75 C6 5 6 5 6.75 7.125 C6.8325 7.74375 6.915 8.3625 7 9 C5.02 8.34 3.04 7.68 1 7 C0.67 4.69 0.34 2.38 0 0 Z " fill="#2971AA" transform="translate(462,212)"/>
<path d="M0 0 C0 0.99 0 1.98 0 3 C-0.66 3 -1.32 3 -2 3 C-1.67 3.99 -1.34 4.98 -1 6 C-1.99 6.495 -1.99 6.495 -3 7 C-3 6.34 -3 5.68 -3 5 C-3.66 4.67 -4.32 4.34 -5 4 C-5 3.34 -5 2.68 -5 2 C-5.66 1.34 -6.32 0.68 -7 0 C-3.86650268 -1.04449911 -3.01031744 -0.93423645 0 0 Z " fill="#171C23" transform="translate(311,196)"/>
<path d="M0 0 C0.33 0 0.66 0 1 0 C2.6290678 4.79137588 3.20577428 8.05632546 2 13 C-0.80390987 10.19609013 -0.66520791 7.88358829 -1 4 C-0.5625 1.5625 -0.5625 1.5625 0 0 Z " fill="#44546D" transform="translate(454,218)"/>
<path d="M0 0 C1.32 0.66 2.64 1.32 4 2 C3.34 3.65 2.68 5.3 2 7 C1.01 6.67 0.02 6.34 -1 6 C-1.33 5.01 -1.66 4.02 -2 3 C-1.34 2.01 -0.68 1.02 0 0 Z " fill="#233C5B" transform="translate(463,229)"/>
<path d="M0 0 C-1.26941497 3.91402949 -2.51167694 5.79072873 -6 8 C-6.36458333 3.50347222 -6.36458333 3.50347222 -4.6875 1.1875 C-3 0 -3 0 0 0 Z " fill="#272A2E" transform="translate(341,173)"/>
<path d="M0 0 C0.391875 0.474375 0.78375 0.94875 1.1875 1.4375 C3.40808374 3.35179633 5.13375709 3.61266988 8 4 C7.67 4.66 7.34 5.32 7 6 C5.00045254 6.04254356 2.99958364 6.04080783 1 6 C0 5 0 5 -0.0625 2.4375 C-0.041875 1.633125 -0.02125 0.82875 0 0 Z " fill="#346F9C" transform="translate(588,127)"/>
<path d="M0 0 C0.66 0 1.32 0 2 0 C1.62403791 2.78211944 1.32681541 4.5879284 -0.4375 6.8125 C-2 8 -2 8 -4 8 C-3.67 6.68 -3.34 5.36 -3 4 C-2.01 4 -1.02 4 0 4 C0 2.68 0 1.36 0 0 Z " fill="#6B88A0" transform="translate(585,120)"/>
<path d="M0 0 C0.33 0.99 0.66 1.98 1 3 C0.34 3 -0.32 3 -1 3 C-1 2.34 -1 1.68 -1 1 C-1.99 1 -2.98 1 -4 1 C-4 1.66 -4 2.32 -4 3 C-5.98 3.33 -7.96 3.66 -10 4 C-6.66064924 0.50886057 -4.84725717 -0.1275594 0 0 Z " fill="#5E87A8" transform="translate(466,211)"/>
<path d="M0 0 C1.9375 0.75 1.9375 0.75 4 2 C4.75 4.125 4.75 4.125 5 6 C4.01 6.33 3.02 6.66 2 7 C1.34 6.67 0.68 6.34 0 6 C0 4.02 0 2.04 0 0 Z " fill="#66899F" transform="translate(576,133)"/>
<path d="M0 0 C0.99 0.33 1.98 0.66 3 1 C3 2.65 3 4.3 3 6 C2.01 6.33 1.02 6.66 0 7 C-1.04449911 3.86650268 -0.93423645 3.01031744 0 0 Z " fill="#3B8ECC" transform="translate(600,126)"/>
<path d="M0 0 C1.98 0 3.96 0 6 0 C4.35 1.65 2.7 3.3 1 5 C0.34 4.34 -0.32 3.68 -1 3 C-0.67 2.01 -0.34 1.02 0 0 Z " fill="#3D4145" transform="translate(139,178)"/>
<path d="M0 0 C2.0625 2.3125 2.0625 2.3125 4 5 C3.67 5.99 3.34 6.98 3 8 C2.01 7.34 1.02 6.68 0 6 C-0.1875 2.875 -0.1875 2.875 0 0 Z " fill="#234268" transform="translate(455,218)"/>
<path d="M0 0 C1.5 1.375 1.5 1.375 3 3 C3 3.66 3 4.32 3 5 C1.35 4.67 -0.3 4.34 -2 4 C-2.33 3.01 -2.66 2.02 -3 1 C-2.01 0.67 -1.02 0.34 0 0 Z " fill="#2E3037" transform="translate(422,161)"/>
<path d="M0 0 C1.65 0 3.3 0 5 0 C5.33 1.65 5.66 3.3 6 5 C5.01 5 4.02 5 3 5 C3 3.68 3 2.36 3 1 C2.01 0.67 1.02 0.34 0 0 Z " fill="#9AAEC3" transform="translate(586,147)"/>
</svg>
